<?xml version="1.0" encoding="utf-8"?>
<!-- Generator: Adobe Illustrator 16.0.1, SVG Export Plug-In . SVG Version: 6.00 Build 0)  -->
<!DOCTYPE svg PUBLIC "-//W3C//DTD SVG 1.1//EN" "http://www.w3.org/Graphics/SVG/1.1/DTD/svg11.dtd">
<svg version="1.1" id="Layer_1" xmlns="http://www.w3.org/2000/svg" xmlns:xlink="http://www.w3.org/1999/xlink" x="0px" y="0px"
	 width="100px" height="100px" viewBox="0 0 100 100" enable-background="new 0 0 100 100" xml:space="preserve">
<path d="M99.843,73.97v7.94"/>
<path fill="#F49F58" d="M60.186,57.07L60.186,57.07V54.52c2.317-2.701,4.064-5.817,5.254-9.45c0.168-0.519,0.328-1.048,0.474-1.587
	c1.214-0.623,2.202-2.282,2.424-4.317c0.075-0.677,0.06-1.331-0.035-1.936c-0.157-1.007-0.53-1.874-1.053-2.472
	c0.104-1.927,0.108-3.963,0.019-6.109c-0.07-1.669-0.197-3.404-0.389-5.216c-0.047-0.448-0.107-0.878-0.179-1.295
	c-1.808-10.416-11.285-11.445-14.886-11.454c-0.145-0.001-2.637-0.001-2.78,0c-3.601,0.008-13.079,1.038-14.886,11.454
	c-0.072,0.417-0.132,0.848-0.179,1.295c-0.19,1.812-0.316,3.546-0.388,5.216c-0.091,2.146-0.087,4.183,0.018,6.109
	c-0.523,0.598-0.896,1.465-1.052,2.472c-0.095,0.605-0.111,1.259-0.037,1.936c0.224,2.035,1.21,3.695,2.425,4.317
	c0.294,1.08,0.633,2.116,1.019,3.112c1.155,2.989,2.723,5.609,4.709,7.925v2.551l0,0c-8.888,9.748-23.579,11.523-23.579,19.621
	v8.828c0,1.084,0.878,1.965,1.963,1.965H81.8c1.084,0,1.962-0.881,1.962-1.965v-8.828C83.764,68.594,69.072,66.818,60.186,57.07z"/>
</svg>
