<?xml version="1.0" encoding="utf-8"?>
<!-- Generator: Adobe Illustrator 16.0.1, SVG Export Plug-In . SVG Version: 6.00 Build 0)  -->
<!DOCTYPE svg PUBLIC "-//W3C//DTD SVG 1.1//EN" "http://www.w3.org/Graphics/SVG/1.1/DTD/svg11.dtd">
<svg version="1.1" id="Layer_1" xmlns="http://www.w3.org/2000/svg" xmlns:xlink="http://www.w3.org/1999/xlink" x="0px" y="0px"
	 width="100px" height="100px" viewBox="0 0 100 100" enable-background="new 0 0 100 100" xml:space="preserve">
<g id="Captions">
</g>
<g id="Your_Icon" opacity="0.7">
	<path fill="#E9E9E9" d="M84.974,84.345c5.534-5.675,5.42-14.794-0.255-20.327c-0.036-0.036-0.079-0.062-0.117-0.094
		c-0.033-0.038-0.06-0.08-0.096-0.115c-5.675-5.534-14.795-5.419-20.328,0.255c-0.094,0.097-0.175,0.2-0.246,0.309
		c-0.105,0.073-0.208,0.156-0.302,0.252c-5.534,5.675-5.42,14.794,0.255,20.329c0.037,0.036,0.079,0.061,0.118,0.094
		c0.033,0.037,0.06,0.078,0.096,0.114c5.675,5.534,14.794,5.42,20.328-0.255c0.094-0.097,0.173-0.201,0.245-0.308
		C84.777,84.523,84.88,84.441,84.974,84.345z M81.464,82.017c-3.941,4.041-10.436,4.122-14.477,0.182
		c-0.036-0.036-0.079-0.062-0.117-0.094c-0.033-0.037-0.06-0.08-0.096-0.115c-4.042-3.941-4.123-10.436-0.183-14.476
		c0.094-0.098,0.175-0.2,0.246-0.309c0.106-0.074,0.208-0.157,0.302-0.253c3.941-4.041,10.436-4.123,14.477-0.182
		c0.037,0.035,0.079,0.062,0.117,0.093c0.033,0.038,0.061,0.08,0.097,0.115c4.04,3.941,4.121,10.435,0.181,14.476
		c-0.094,0.097-0.174,0.201-0.246,0.309C81.66,81.837,81.558,81.92,81.464,82.017z"/>
	<path fill="#E9E9E9" d="M80.271,77.319l-3.021-2.945l2.873-2.945c0.798-0.818,0.793-2.117-0.025-2.915s-2.117-0.771-2.915,0.047
		l-2.873,2.946l-2.993-2.919c-0.817-0.798-2.116-0.793-2.915,0.026c-0.798,0.817-0.771,2.116,0.048,2.914l2.992,2.919l-2.99,3.066
		c-0.799,0.818-0.793,2.117,0.025,2.916c0.818,0.798,2.116,0.771,2.914-0.048l2.991-3.066l3.021,2.944
		c0.817,0.798,2.117,0.793,2.916-0.025C81.117,79.417,81.09,78.117,80.271,77.319z"/>
</g>
</svg>
