<svg xmlns="http://www.w3.org/2000/svg" xmlns:xlink="http://www.w3.org/1999/xlink" version="1.1" id="Your_Icon" x="0px" y="0px" width="100px" height="100px" viewBox="0 0 100 100" enable-background="new 0 0 100 100" xml:space="preserve">
<path d="M23.815,34.414c0-1.611,1.292-2.896,2.902-2.896h19.241h5.186c0.812,0,1.545,0.338,2.067,0.877l0.923,1.042l6.657,7.73  h11.896V22.755c0-1.367-1.109-2.471-2.478-2.471H33.937l-5.684-6.597l-0.785-0.888c-0.446-0.458-1.072-0.749-1.763-0.749H9.286  c-1.375,0-2.479,1.098-2.479,2.471V58.91c0,1.364,1.104,2.468,2.479,2.468H20.4h3.415V34.414z"/>
<path d="M93.356,46.424H57.082l-5.679-6.597l-0.789-0.888c-0.445-0.46-1.07-0.749-1.763-0.749l0,0H32.433  c-1.375,0-2.477,1.098-2.477,2.469v44.39l0,0c0,1.364,1.102,2.468,2.477,2.468h11.118h11.112h38.693  c1.371,0,2.477-1.104,2.477-2.468l0,0V48.895C95.833,47.528,94.728,46.424,93.356,46.424z"/>
<path d="M89.764,33.231L98,25.439l-4.032-0.093C92.795,5.229,67.045-3.117,49,6.244c15-6.437,35.998,5.597,36.902,18.937  l-4.048-0.103L89.764,33.231z"/>
<path d="M11.511,67.735l-8.24,7.788l4.032,0.096c1.175,20.117,26.921,28.462,44.967,19.1c-14.998,6.439-35.995-5.594-36.902-18.931  l4.051,0.101L11.511,67.735z"/>
</svg>